STARTFONT 2.1
FONT -Bitstream-Charter-Medium-R-Normal--19-140-100-100-P-106-ISO8859-15
SIZE 14 100 100
FONTBOUNDINGBOX 19 23 -1 -5

STARTPROPERTIES 25
FONTNAME_REGISTRY ""
FAMILY_NAME "Charter"
FOUNDRY "Bitstream"
WEIGHT_NAME "Medium"
SETWIDTH_NAME "Normal"
SLANT "R"
ADD_STYLE_NAME ""
PIXEL_SIZE 19
POINT_SIZE 140
RESOLUTION_X 100
RESOLUTION_Y 100
SPACING "P"
AVERAGE_WIDTH 106
CHARSET_REGISTRY "ISO8859"
CHARSET_ENCODING "15"
CAP_HEIGHT 13
X_HEIGHT 9
CHARSET_COLLECTIONS "ASCII ISOLATIN1"
FACE_NAME "Bitstream Charter Roman"
COPYRIGHT "Copyright 1987 by Bitstream Inc. Charter Registered trademark of Bitstream Inc."
WEIGHT 10
QUAD_WIDTH 11
DEFAULT_CHAR 0
FONT_DESCENT 5
FONT_ASCENT 18
ENDPROPERTIES

CHARS 191

STARTCHAR space
ENCODING 32
SWIDTH 278 0
DWIDTH 5 0
BBX 1 1 0 0
BITMAP
00
ENDCHAR

STARTCHAR exclam
ENCODING 33
SWIDTH 338 0
DWIDTH 7 0
BBX 2 13 3 0
BITMAP
C0
C0
C0
C0
C0
C0
C0
C0
C0
40
00
C0
C0
ENDCHAR

STARTCHAR quotedbl
ENCODING 34
SWIDTH 331 0
DWIDTH 7 0
BBX 5 6 1 7
BITMAP
D8
D8
D8
D8
48
48
ENDCHAR

STARTCHAR numbersign
ENCODING 35
SWIDTH 745 0
DWIDTH 14 0
BBX 12 14 1 -1
BITMAP
0220
0440
0440
0440
7FF0
0880
0880
1100
FFE0
1100
2200
2200
2200
4400
ENDCHAR

STARTCHAR dollar
ENCODING 36
SWIDTH 556 0
DWIDTH 11 0
BBX 9 16 1 -2
BITMAP
0800
1F00
6900
C900
C800
C800
7800
3E00
0F00
0980
8980
8980
8B00
FC00
0800
0800
ENDCHAR

STARTCHAR percent
ENCODING 37
SWIDTH 852 0
DWIDTH 16 0
BBX 14 13 1 0
BITMAP
7020
5820
8840
88C0
8880
8938
8B44
7244
0444
0444
0844
102C
1038
ENDCHAR

STARTCHAR ampersand
ENCODING 38
SWIDTH 704 0
DWIDTH 14 0
BBX 13 13 1 0
BITMAP
1E00
3300
6180
6180
3300
1E00
3C78
6620
C320
C1A0
E0C0
71E0
3E38
ENDCHAR

STARTCHAR quoteright
ENCODING 39
SWIDTH 201 0
DWIDTH 4 0
BBX 2 5 1 8
BITMAP
C0
C0
40
40
80
ENDCHAR

STARTCHAR parenleft
ENCODING 40
SWIDTH 417 0
DWIDTH 8 0
BBX 6 16 2 -3
BITMAP
0C
10
20
60
40
C0
C0
C0
C0
C0
C0
40
60
20
10
0C
ENDCHAR

STARTCHAR parenright
ENCODING 41
SWIDTH 417 0
DWIDTH 8 0
BBX 6 16 0 -3
BITMAP
C0
20
10
18
08
0C
0C
0C
0C
0C
0C
08
18
10
20
C0
ENDCHAR

STARTCHAR asterisk
ENCODING 42
SWIDTH 500 0
DWIDTH 10 0
BBX 8 7 1 6
BITMAP
08
18
DB
7E
18
24
26
ENDCHAR

STARTCHAR plus
ENCODING 43
SWIDTH 833 0
DWIDTH 16 0
BBX 11 11 3 0
BITMAP
0400
0400
0400
0400
0400
FFE0
0400
0400
0400
0400
0400
ENDCHAR

STARTCHAR comma
ENCODING 44
SWIDTH 278 0
DWIDTH 5 0
BBX 2 6 1 -4
BITMAP
C0
C0
40
40
80
80
ENDCHAR

STARTCHAR hyphen
ENCODING 45
SWIDTH 319 0
DWIDTH 6 0
BBX 4 1 1 4
BITMAP
F0
ENDCHAR

STARTCHAR period
ENCODING 46
SWIDTH 278 0
DWIDTH 5 0
BBX 2 2 2 0
BITMAP
C0
C0
ENDCHAR

STARTCHAR slash
ENCODING 47
SWIDTH 481 0
DWIDTH 9 0
BBX 10 15 -1 -2
BITMAP
00C0
0080
0180
0100
0200
0200
0400
0C00
0800
1000
1000
2000
6000
4000
C000
ENDCHAR

STARTCHAR zero
ENCODING 48
SWIDTH 556 0
DWIDTH 11 0
BBX 9 13 1 0
BITMAP
1C00
2200
6300
4180
C180
C180
C180
C180
C180
4180
6300
2200
1C00
ENDCHAR

STARTCHAR one
ENCODING 49
SWIDTH 556 0
DWIDTH 11 0
BBX 6 13 2 0
BITMAP
38
D8
18
18
18
18
18
18
18
18
18
18
7C
ENDCHAR

STARTCHAR two
ENCODING 50
SWIDTH 556 0
DWIDTH 11 0
BBX 9 13 1 0
BITMAP
3E00
4300
C180
C180
0180
0180
0300
0600
0C00
1800
3080
4080
FF80
ENDCHAR

STARTCHAR three
ENCODING 51
SWIDTH 556 0
DWIDTH 11 0
BBX 9 13 1 0
BITMAP
3E00
4700
C300
4300
0300
0600
1C00
0300
0180
0180
C180
C300
7C00
ENDCHAR

STARTCHAR four
ENCODING 52
SWIDTH 556 0
DWIDTH 11 0
BBX 10 14 1 -1
BITMAP
0300
0700
0F00
0B00
1300
2300
6300
C300
FFC0
0300
0300
0300
0300
0300
ENDCHAR

STARTCHAR five
ENCODING 53
SWIDTH 556 0
DWIDTH 11 0
BBX 10 13 0 0
BITMAP
7F80
6000
6000
6000
6000
7F00
0380
00C0
00C0
00C0
4180
E380
3E00
ENDCHAR

STARTCHAR six
ENCODING 54
SWIDTH 556 0
DWIDTH 11 0
BBX 9 13 1 0
BITMAP
0600
1800
3000
6000
4000
DE00
E300
C180
C180
C180
4100
2300
1C00
ENDCHAR

STARTCHAR seven
ENCODING 55
SWIDTH 556 0
DWIDTH 11 0
BBX 9 14 1 -1
BITMAP
FF80
8180
8100
0300
0200
0600
0400
0C00
0800
1000
1000
2000
2000
6000
ENDCHAR

STARTCHAR eight
ENCODING 56
SWIDTH 556 0
DWIDTH 11 0
BBX 9 13 1 0
BITMAP
1E00
2300
6100
6100
6300
3200
1E00
6300
C180
C180
C180
6300
1E00
ENDCHAR

STARTCHAR nine
ENCODING 57
SWIDTH 556 0
DWIDTH 11 0
BBX 9 14 1 -1
BITMAP
1C00
6300
4100
C180
C180
C180
C180
6380
3F00
0200
0600
0C00
1800
6000
ENDCHAR

STARTCHAR colon
ENCODING 58
SWIDTH 319 0
DWIDTH 6 0
BBX 2 9 2 0
BITMAP
C0
C0
00
00
00
00
00
C0
C0
ENDCHAR

STARTCHAR semicolon
ENCODING 59
SWIDTH 319 0
DWIDTH 6 0
BBX 3 13 1 -4
BITMAP
60
60
00
00
00
00
00
60
60
20
20
40
C0
ENDCHAR

STARTCHAR less
ENCODING 60
SWIDTH 833 0
DWIDTH 16 0
BBX 11 10 2 0
BITMAP
0020
01C0
0700
3800
E000
E000
3800
0700
01C0
0020
ENDCHAR

STARTCHAR equal
ENCODING 61
SWIDTH 833 0
DWIDTH 16 0
BBX 11 5 3 3
BITMAP
FFE0
0000
0000
0000
FFE0
ENDCHAR

STARTCHAR greater
ENCODING 62
SWIDTH 833 0
DWIDTH 16 0
BBX 11 10 3 0
BITMAP
8000
7000
1C00
0380
00E0
00E0
0380
1C00
7000
8000
ENDCHAR

STARTCHAR question
ENCODING 63
SWIDTH 486 0
DWIDTH 9 0
BBX 7 13 1 0
BITMAP
78
CC
C6
06
06
04
08
10
20
20
00
30
30
ENDCHAR

STARTCHAR at
ENCODING 64
SWIDTH 942 0
DWIDTH 18 0
BBX 15 16 2 -3
BITMAP
03E0
0C18
1004
6004
41D2
4332
8622
8C22
8C22
8C64
8CE8
C770
6000
3000
1C18
07E0
ENDCHAR

STARTCHAR A
ENCODING 65
SWIDTH 639 0
DWIDTH 13 0
BBX 13 13 0 0
BITMAP
0200
0700
0700
0500
0980
0880
10C0
1FC0
1040
2060
2060
6030
F0F8
ENDCHAR

STARTCHAR B
ENCODING 66
SWIDTH 604 0
DWIDTH 12 0
BBX 10 13 1 0
BITMAP
FE00
6380
6180
6180
6180
6300
7F00
6180
60C0
60C0
60C0
6180
FE00
ENDCHAR

STARTCHAR C
ENCODING 67
SWIDTH 632 0
DWIDTH 12 0
BBX 10 13 1 0
BITMAP
0F80
30C0
6040
6040
C000
C000
C000
C000
C000
6040
6040
3840
0F80
ENDCHAR

STARTCHAR D
ENCODING 68
SWIDTH 694 0
DWIDTH 13 0
BBX 11 13 1 0
BITMAP
FE00
6180
60C0
60C0
6060
6060
6060
6060
6060
60C0
60C0
6380
FE00
ENDCHAR

STARTCHAR E
ENCODING 69
SWIDTH 576 0
DWIDTH 11 0
BBX 9 13 1 0
BITMAP
FF00
6100
6100
6000
6200
6200
7E00
6200
6200
6000
6080
6080
FF80
ENDCHAR

STARTCHAR F
ENCODING 70
SWIDTH 537 0
DWIDTH 10 0
BBX 8 13 1 0
BITMAP
FF
61
61
60
62
62
7E
62
62
60
60
60
F0
ENDCHAR

STARTCHAR G
ENCODING 71
SWIDTH 694 0
DWIDTH 13 0
BBX 11 13 1 0
BITMAP
0FC0
30C0
60C0
6040
C000
C000
C000
C1E0
C0C0
60C0
60C0
30C0
0F80
ENDCHAR

STARTCHAR H
ENCODING 72
SWIDTH 738 0
DWIDTH 14 0
BBX 12 13 1 0
BITMAP
F0F0
6060
6060
6060
6060
6060
7FE0
6060
6060
6060
6060
6060
F0F0
ENDCHAR

STARTCHAR I
ENCODING 73
SWIDTH 324 0
DWIDTH 6 0
BBX 4 13 1 0
BITMAP
F0
60
60
60
60
60
60
60
60
60
60
60
F0
ENDCHAR

STARTCHAR J
ENCODING 74
SWIDTH 444 0
DWIDTH 9 0
BBX 8 13 0 0
BITMAP
1F
06
06
06
06
06
06
06
06
86
86
8C
F8
ENDCHAR

STARTCHAR K
ENCODING 75
SWIDTH 611 0
DWIDTH 12 0
BBX 11 13 1 0
BITMAP
F3E0
6080
6100
6200
6400
6800
7C00
6C00
6600
6300
6380
6180
F0E0
ENDCHAR

STARTCHAR L
ENCODING 76
SWIDTH 520 0
DWIDTH 10 0
BBX 9 13 1 0
BITMAP
F000
6000
6000
6000
6000
6000
6000
6000
6000
6080
6080
6080
FF80
ENDCHAR

STARTCHAR M
ENCODING 77
SWIDTH 866 0
DWIDTH 17 0
BBX 15 13 1 0
BITMAP
F01E
701C
702C
582C
582C
484C
4C4C
4CCC
468C
468C
430C
430C
F31E
ENDCHAR

STARTCHAR N
ENCODING 78
SWIDTH 713 0
DWIDTH 14 0
BBX 12 13 1 0
BITMAP
E0F0
7020
7020
5820
4C20
4E20
4620
4320
41A0
41A0
40E0
4060
F060
ENDCHAR

STARTCHAR O
ENCODING 79
SWIDTH 731 0
DWIDTH 14 0
BBX 12 13 1 0
BITMAP
0F00
30C0
6060
6060
C030
C030
C030
C030
C030
6060
6060
30C0
0F00
ENDCHAR

STARTCHAR P
ENCODING 80
SWIDTH 558 0
DWIDTH 11 0
BBX 9 13 1 0
BITMAP
FE00
6300
6180
6180
6180
6180
6300
7C00
6000
6000
6000
6000
F000
ENDCHAR

STARTCHAR Q
ENCODING 81
SWIDTH 731 0
DWIDTH 14 0
BBX 12 17 1 -4
BITMAP
0F00
30C0
6060
6060
C030
C030
C030
C030
C030
6060
6060
30C0
0F80
0600
0600
0300
03E0
ENDCHAR

STARTCHAR R
ENCODING 82
SWIDTH 646 0
DWIDTH 13 0
BBX 12 13 1 0
BITMAP
FF00
6380
60C0
60C0
60C0
6180
7E00
6380
6180
6080
60C0
60C0
F070
ENDCHAR

STARTCHAR S
ENCODING 83
SWIDTH 556 0
DWIDTH 11 0
BBX 9 13 1 0
BITMAP
3F00
6100
C100
C000
E000
7000
3E00
0700
0180
8180
8180
C300
FC00
ENDCHAR

STARTCHAR T
ENCODING 84
SWIDTH 597 0
DWIDTH 12 0
BBX 12 13 0 0
BITMAP
FFF0
8610
8610
0600
0600
0600
0600
0600
0600
0600
0600
0600
1F80
ENDCHAR

STARTCHAR U
ENCODING 85
SWIDTH 694 0
DWIDTH 13 0
BBX 11 13 1 0
BITMAP
F1E0
60C0
60C0
60C0
60C0
60C0
60C0
60C0
60C0
60C0
60C0
3180
1E00
ENDCHAR

STARTCHAR V
ENCODING 86
SWIDTH 618 0
DWIDTH 12 0
BBX 13 13 0 0
BITMAP
F878
6030
3020
3020
1040
1840
18C0
0C80
0C80
0500
0700
0700
0200
ENDCHAR

STARTCHAR W
ENCODING 87
SWIDTH 928 0
DWIDTH 18 0
BBX 18 13 0 0
BITMAP
F8C7C0
60C100
30E100
30E100
312300
112200
193200
193600
0A1400
0E1400
0E1C00
040800
040800
ENDCHAR

STARTCHAR X
ENCODING 88
SWIDTH 600 0
DWIDTH 12 0
BBX 12 13 0 0
BITMAP
F8F0
3040
18C0
1880
0D00
0600
0600
0F00
0980
1180
20C0
60C0
F1F0
ENDCHAR

STARTCHAR Y
ENCODING 89
SWIDTH 586 0
DWIDTH 11 0
BBX 12 13 0 0
BITMAP
F0F0
6020
3040
1080
1880
0D00
0F00
0600
0600
0600
0600
0600
1F80
ENDCHAR

STARTCHAR Z
ENCODING 90
SWIDTH 586 0
DWIDTH 11 0
BBX 9 13 1 0
BITMAP
FF80
C180
8300
0600
0600
0C00
0800
1800
3000
3080
6080
C080
FF80
ENDCHAR

STARTCHAR bracketleft
ENCODING 91
SWIDTH 421 0
DWIDTH 8 0
BBX 5 16 2 -3
BITMAP
F8
C0
C0
C0
C0
C0
C0
C0
C0
C0
C0
C0
C0
C0
C0
F8
ENDCHAR

STARTCHAR backslash
ENCODING 92
SWIDTH 481 0
DWIDTH 10 0
BBX 10 15 0 -2
BITMAP
C000
4000
2000
2000
1000
1800
0800
0400
0400
0200
0200
0100
0180
0080
00C0
ENDCHAR

STARTCHAR bracketright
ENCODING 93
SWIDTH 421 0
DWIDTH 8 0
BBX 5 16 1 -3
BITMAP
F8
18
18
18
18
18
18
18
18
18
18
18
18
18
18
F8
ENDCHAR

STARTCHAR asciicircum
ENCODING 94
SWIDTH 1000 0
DWIDTH 19 0
BBX 11 5 4 8
BITMAP
0E00
1B00
3180
60C0
8020
ENDCHAR

STARTCHAR underscore
ENCODING 95
SWIDTH 500 0
DWIDTH 10 0
BBX 10 1 0 -5
BITMAP
FFC0
ENDCHAR

STARTCHAR quoteleft
ENCODING 96
SWIDTH 201 0
DWIDTH 4 0
BBX 2 5 1 8
BITMAP
40
80
80
C0
C0
ENDCHAR

STARTCHAR a
ENCODING 97
SWIDTH 507 0
DWIDTH 10 0
BBX 9 9 1 0
BITMAP
3C00
6600
0600
0E00
3600
C600
C600
CE00
7780
ENDCHAR

STARTCHAR b
ENCODING 98
SWIDTH 539 0
DWIDTH 11 0
BBX 9 13 1 0
BITMAP
E000
6000
6000
6000
7E00
6300
6180
6180
6180
6180
6100
6200
7C00
ENDCHAR

STARTCHAR c
ENCODING 99
SWIDTH 446 0
DWIDTH 9 0
BBX 7 9 1 0
BITMAP
1C
26
46
C0
C0
C0
C0
62
3C
ENDCHAR

STARTCHAR d
ENCODING 100
SWIDTH 565 0
DWIDTH 11 0
BBX 9 13 1 0
BITMAP
0700
0300
0300
0300
1F00
2300
4300
C300
C300
C300
C300
6700
3B80
ENDCHAR

STARTCHAR e
ENCODING 101
SWIDTH 491 0
DWIDTH 10 0
BBX 8 9 1 0
BITMAP
1C
62
C3
FF
C0
C0
40
61
3E
ENDCHAR

STARTCHAR f
ENCODING 102
SWIDTH 321 0
DWIDTH 6 0
BBX 6 13 1 0
BITMAP
1C
24
60
60
F8
60
60
60
60
60
60
60
F0
ENDCHAR

STARTCHAR g
ENCODING 103
SWIDTH 523 0
DWIDTH 10 0
BBX 9 14 1 -5
BITMAP
3C00
6780
C300
C300
6600
3C00
2000
2000
3E00
C380
8180
C180
C300
7C00
ENDCHAR

STARTCHAR h
ENCODING 104
SWIDTH 564 0
DWIDTH 11 0
BBX 9 13 1 0
BITMAP
E000
6000
6000
6000
7E00
6300
6300
6300
6300
6300
6300
6300
F780
ENDCHAR

STARTCHAR i
ENCODING 105
SWIDTH 280 0
DWIDTH 5 0
BBX 4 13 1 0
BITMAP
60
60
00
00
E0
60
60
60
60
60
60
60
F0
ENDCHAR

STARTCHAR j
ENCODING 106
SWIDTH 266 0
DWIDTH 6 0
BBX 5 18 -1 -5
BITMAP
18
18
00
00
38
18
18
18
18
18
18
18
18
18
18
10
D0
E0
ENDCHAR

STARTCHAR k
ENCODING 107
SWIDTH 518 0
DWIDTH 10 0
BBX 9 13 1 0
BITMAP
E000
6000
6000
6000
6700
6200
6400
6800
7800
6C00
6600
6300
F380
ENDCHAR

STARTCHAR l
ENCODING 108
SWIDTH 282 0
DWIDTH 5 0
BBX 4 13 1 0
BITMAP
E0
60
60
60
60
60
60
60
60
60
60
60
F0
ENDCHAR

STARTCHAR m
ENCODING 109
SWIDTH 843 0
DWIDTH 16 0
BBX 14 9 1 0
BITMAP
FEF0
6318
6318
6318
6318
6318
6318
6318
F7BC
ENDCHAR

STARTCHAR n
ENCODING 110
SWIDTH 569 0
DWIDTH 11 0
BBX 9 9 1 0
BITMAP
FF00
6300
6300
6300
6300
6300
6300
6300
F780
ENDCHAR

STARTCHAR o
ENCODING 111
SWIDTH 539 0
DWIDTH 10 0
BBX 8 9 1 0
BITMAP
18
66
42
C3
C3
C3
42
66
18
ENDCHAR

STARTCHAR p
ENCODING 112
SWIDTH 551 0
DWIDTH 11 0
BBX 9 14 1 -5
BITMAP
FF00
6300
6180
6180
6180
6180
6100
6200
7C00
6000
6000
6000
6000
F000
ENDCHAR

STARTCHAR q
ENCODING 113
SWIDTH 531 0
DWIDTH 10 0
BBX 9 14 1 -5
BITMAP
1F00
2300
4300
C300
C300
C300
C300
6300
3F00
0300
0300
0300
0300
0780
ENDCHAR

STARTCHAR r
ENCODING 114
SWIDTH 382 0
DWIDTH 7 0
BBX 6 9 1 0
BITMAP
EC
70
60
60
60
60
60
60
F0
ENDCHAR

STARTCHAR s
ENCODING 115
SWIDTH 400 0
DWIDTH 8 0
BBX 6 9 1 0
BITMAP
3C
4C
CC
E0
38
1C
8C
88
F0
ENDCHAR

STARTCHAR t
ENCODING 116
SWIDTH 335 0
DWIDTH 6 0
BBX 5 11 1 0
BITMAP
20
60
F8
60
60
60
60
60
60
60
38
ENDCHAR

STARTCHAR u
ENCODING 117
SWIDTH 569 0
DWIDTH 11 0
BBX 9 9 1 0
BITMAP
E700
6300
6300
6300
6300
6300
6300
6300
3F80
ENDCHAR

STARTCHAR v
ENCODING 118
SWIDTH 494 0
DWIDTH 10 0
BBX 10 9 0 0
BITMAP
F3C0
6080
2100
2100
3200
1200
1C00
1C00
0800
ENDCHAR

STARTCHAR w
ENCODING 119
SWIDTH 771 0
DWIDTH 15 0
BBX 15 9 0 0
BITMAP
F19E
6184
2388
32C8
32C8
1450
1C50
1C70
0820
ENDCHAR

STARTCHAR x
ENCODING 120
SWIDTH 504 0
DWIDTH 10 0
BBX 10 9 0 0
BITMAP
FBC0
3100
3200
1C00
0C00
1600
3300
6300
F3C0
ENDCHAR

STARTCHAR y
ENCODING 121
SWIDTH 495 0
DWIDTH 10 0
BBX 10 14 0 -5
BITMAP
F1C0
6080
2100
3100
3100
1200
1A00
0C00
0C00
0C00
0800
0800
5000
6000
ENDCHAR

STARTCHAR z
ENCODING 122
SWIDTH 468 0
DWIDTH 9 0
BBX 7 9 1 0
BITMAP
FE
84
8C
18
30
20
62
C2
FE
ENDCHAR

STARTCHAR braceleft
ENCODING 123
SWIDTH 486 0
DWIDTH 9 0
BBX 7 16 1 -3
BITMAP
0E
18
10
10
10
10
30
C0
30
10
10
10
10
10
18
0E
ENDCHAR

STARTCHAR bar
ENCODING 124
SWIDTH 500 0
DWIDTH 10 0
BBX 1 19 5 -5
BITMAP
80
80
80
80
80
80
80
80
80
80
80
80
80
80
80
80
80
80
80
ENDCHAR

STARTCHAR braceright
ENCODING 125
SWIDTH 486 0
DWIDTH 9 0
BBX 7 16 1 -3
BITMAP
E0
30
10
10
10
10
18
06
18
10
10
10
10
10
30
E0
ENDCHAR

STARTCHAR c0126
ENCODING 126
SWIDTH 1000 0
DWIDTH 19 0
BBX 11 2 4 10
BITMAP
3C60
C780
ENDCHAR

STARTCHAR space
ENCODING 160
SWIDTH 278 0
DWIDTH 5 0
BBX 1 1 0 0
BITMAP
00
ENDCHAR

STARTCHAR exclamdown
ENCODING 161
SWIDTH 338 0
DWIDTH 7 0
BBX 2 13 3 0
BITMAP
C0
C0
00
40
C0
C0
C0
C0
C0
C0
C0
C0
C0
ENDCHAR

STARTCHAR cent
ENCODING 162
SWIDTH 556 0
DWIDTH 11 0
BBX 9 13 1 -2
BITMAP
0400
0400
1F80
3480
6480
C400
C400
C400
6480
6480
1F80
0400
0400
ENDCHAR

STARTCHAR sterling
ENCODING 163
SWIDTH 556 0
DWIDTH 11 0
BBX 9 13 1 0
BITMAP
0F00
1980
1180
3000
3000
3000
3000
7E00
3000
3000
2000
6000
FF80
ENDCHAR

STARTCHAR EuroSign
ENCODING 164
SWIDTH 509 0
DWIDTH 10 0
BBX 11 13 -1 0
BITMAP
07C0
0C60
1820
1020
3000
FFC0
3000
FF80
3000
3000
1820
1840
0780
ENDCHAR

STARTCHAR yen
ENCODING 165
SWIDTH 556 0
DWIDTH 11 0
BBX 11 13 0 0
BITMAP
F1E0
6040
2080
3180
3100
FBE0
1A00
0C00
FFE0
0C00
0C00
0C00
1F00
ENDCHAR

STARTCHAR Scaron
ENCODING 166
SWIDTH 556 0
DWIDTH 11 0
BBX 9 17 1 0
BITMAP
2100
1200
1E00
0C00
3F00
6100
C100
C000
E000
7000
3E00
0700
0180
8180
8180
C300
FC00
ENDCHAR

STARTCHAR section
ENCODING 167
SWIDTH 500 0
DWIDTH 10 0
BBX 8 16 1 -3
BITMAP
3E
62
C2
60
38
3C
47
C3
C3
66
38
0E
06
43
46
7C
ENDCHAR

STARTCHAR scaron
ENCODING 168
SWIDTH 400 0
DWIDTH 8 0
BBX 6 13 1 0
BITMAP
84
48
78
30
3C
4C
CC
E0
38
1C
8C
88
F0
ENDCHAR

STARTCHAR copyright
ENCODING 169
SWIDTH 900 0
DWIDTH 17 0
BBX 15 15 1 -2
BITMAP
07C0
1830
2008
43E4
4E24
8C22
9802
9802
9802
8C22
4E24
43E4
2008
1830
07C0
ENDCHAR

STARTCHAR ordfeminine
ENCODING 170
SWIDTH 380 0
DWIDTH 7 0
BBX 6 7 1 6
BITMAP
70
C8
18
68
88
98
6C
ENDCHAR

STARTCHAR guillemotleft
ENCODING 171
SWIDTH 442 0
DWIDTH 9 0
BBX 7 7 1 1
BITMAP
22
66
CC
88
CC
66
22
ENDCHAR

STARTCHAR logicalnot
ENCODING 172
SWIDTH 833 0
DWIDTH 16 0
BBX 11 5 3 3
BITMAP
FFE0
0020
0020
0020
0020
ENDCHAR

STARTCHAR hyphen
ENCODING 173
SWIDTH 319 0
DWIDTH 6 0
BBX 4 1 1 4
BITMAP
F0
ENDCHAR

STARTCHAR registered
ENCODING 174
SWIDTH 900 0
DWIDTH 17 0
BBX 15 15 1 -2
BITMAP
07C0
1830
2008
4FC4
44E4
8462
84C2
8782
84C2
8462
4464
4E3C
2008
1830
07C0
ENDCHAR

STARTCHAR macron
ENCODING 175
SWIDTH 500 0
DWIDTH 10 0
BBX 6 1 2 11
BITMAP
FC
ENDCHAR

STARTCHAR degree
ENCODING 176
SWIDTH 329 0
DWIDTH 6 0
BBX 5 5 1 8
BITMAP
70
88
88
88
70
ENDCHAR

STARTCHAR plusminus
ENCODING 177
SWIDTH 833 0
DWIDTH 16 0
BBX 11 10 3 0
BITMAP
0400
0400
0400
FFE0
0400
0400
0400
0000
0000
FFE0
ENDCHAR

STARTCHAR twosuperior
ENCODING 178
SWIDTH 367 0
DWIDTH 7 0
BBX 6 8 1 5
BITMAP
78
8C
84
04
08
30
44
FC
ENDCHAR

STARTCHAR threesuperior
ENCODING 179
SWIDTH 367 0
DWIDTH 7 0
BBX 6 8 1 5
BITMAP
78
8C
08
30
0C
04
8C
70
ENDCHAR

STARTCHAR Zcaron
ENCODING 180
SWIDTH 586 0
DWIDTH 11 0
BBX 9 17 1 0
BITMAP
2100
1200
1E00
0C00
FF80
C180
8300
0600
0600
0C00
0800
1800
3000
3080
6080
C080
FF80
ENDCHAR

STARTCHAR mu
ENCODING 181
SWIDTH 548 0
DWIDTH 10 0
BBX 11 12 -1 -4
BITMAP
3080
3180
2180
2100
2100
6320
6340
5DC0
4000
C000
C000
8000
ENDCHAR

STARTCHAR paragraph
ENCODING 182
SWIDTH 484 0
DWIDTH 9 0
BBX 9 15 0 -2
BITMAP
1F80
7D00
FD00
FD00
FD00
FD00
7D00
3D00
0100
0100
0100
0100
0100
0100
0100
ENDCHAR

STARTCHAR periodcentered
ENCODING 183
SWIDTH 278 0
DWIDTH 5 0
BBX 2 2 2 5
BITMAP
C0
C0
ENDCHAR

STARTCHAR zcaron
ENCODING 184
SWIDTH 468 0
DWIDTH 9 0
BBX 7 13 1 0
BITMAP
42
24
3C
18
FE
84
8C
18
30
20
62
C2
FE
ENDCHAR

STARTCHAR onesuperior
ENCODING 185
SWIDTH 367 0
DWIDTH 7 0
BBX 3 8 2 5
BITMAP
40
C0
40
40
40
40
40
E0
ENDCHAR

STARTCHAR ordmasculine
ENCODING 186
SWIDTH 405 0
DWIDTH 8 0
BBX 7 7 1 6
BITMAP
38
44
82
82
82
44
38
ENDCHAR

STARTCHAR guillemotright
ENCODING 187
SWIDTH 442 0
DWIDTH 9 0
BBX 7 7 1 1
BITMAP
88
CC
66
22
66
CC
88
ENDCHAR

STARTCHAR Ligature_OE
ENCODING 188
SWIDTH 916 0
DWIDTH 18 0
BBX 17 13 1 0
BITMAP
0FFF00
30C100
60C100
60C000
C0C400
C0C400
C0FC00
C0C400
C0C400
60C000
60C080
30C100
0FFF00
ENDCHAR

STARTCHAR Ligature_oe
ENCODING 189
SWIDTH 763 0
DWIDTH 15 0
BBX 13 9 1 0
BITMAP
3CE0
6710
C318
C3F8
C300
C300
C388
67F0
3CF0
ENDCHAR

STARTCHAR Ydiaeresis
ENCODING 190
SWIDTH 586 0
DWIDTH 11 0
BBX 12 17 0 0
BITMAP
1980
1980
0000
0000
F0F0
6020
3040
1080
1880
0D00
0F00
0600
0600
0600
0600
0600
1F80
ENDCHAR

STARTCHAR questiondown
ENCODING 191
SWIDTH 486 0
DWIDTH 9 0
BBX 7 13 1 0
BITMAP
18
18
00
08
08
10
20
40
C0
C0
C6
66
3C
ENDCHAR

STARTCHAR Agrave
ENCODING 192
SWIDTH 639 0
DWIDTH 13 0
BBX 13 17 0 0
BITMAP
1800
0C00
0400
0200
0200
0700
0700
0500
0980
0880
10C0
1FC0
1040
2060
2060
6030
F0F8
ENDCHAR

STARTCHAR Aacute
ENCODING 193
SWIDTH 639 0
DWIDTH 13 0
BBX 13 17 0 0
BITMAP
0180
0300
0200
0400
0200
0700
0700
0500
0980
0880
10C0
1FC0
1040
2060
2060
6030
F0F8
ENDCHAR

STARTCHAR Acircumflex
ENCODING 194
SWIDTH 639 0
DWIDTH 13 0
BBX 13 17 0 0
BITMAP
0600
0F00
0900
1080
0200
0700
0700
0500
0980
0880
10C0
1FC0
1040
2060
2060
6030
F0F8
ENDCHAR

STARTCHAR Atilde
ENCODING 195
SWIDTH 639 0
DWIDTH 13 0
BBX 13 17 0 0
BITMAP
0880
1F80
1100
0000
0200
0700
0700
0500
0980
0880
10C0
1FC0
1040
2060
2060
6030
F0F8
ENDCHAR

STARTCHAR Adieresis
ENCODING 196
SWIDTH 639 0
DWIDTH 13 0
BBX 13 17 0 0
BITMAP
1980
1980
0000
0000
0200
0700
0700
0500
0980
0880
10C0
1FC0
1040
2060
2060
6030
F0F8
ENDCHAR

STARTCHAR Aring
ENCODING 197
SWIDTH 639 0
DWIDTH 13 0
BBX 13 18 0 0
BITMAP
0600
0900
0900
0600
0000
0200
0700
0700
0500
0980
0880
10C0
1FC0
1040
2060
2060
6030
F0F8
ENDCHAR

STARTCHAR AE
ENCODING 198
SWIDTH 866 0
DWIDTH 17 0
BBX 17 13 -1 0
BITMAP
03FF00
00E100
016100
026000
026200
046200
087E00
0FE200
106000
106000
206080
606080
F0FF80
ENDCHAR

STARTCHAR Ccedilla
ENCODING 199
SWIDTH 632 0
DWIDTH 12 0
BBX 10 18 1 -5
BITMAP
0F80
30C0
6040
6040
C000
C000
C000
C000
C000
6040
6040
3840
0F80
0400
0700
0100
0100
0E00
ENDCHAR

STARTCHAR Egrave
ENCODING 200
SWIDTH 576 0
DWIDTH 11 0
BBX 9 17 1 0
BITMAP
3000
1800
0800
0400
FF00
6100
6100
6000
6200
6200
7E00
6200
6200
6000
6080
6080
FF80
ENDCHAR

STARTCHAR Eacute
ENCODING 201
SWIDTH 576 0
DWIDTH 11 0
BBX 9 17 1 0
BITMAP
0300
0600
0400
0800
FF00
6100
6100
6000
6200
6200
7E00
6200
6200
6000
6080
6080
FF80
ENDCHAR

STARTCHAR Ecircumflex
ENCODING 202
SWIDTH 576 0
DWIDTH 11 0
BBX 9 17 1 0
BITMAP
0C00
1E00
1200
2100
FF00
6100
6100
6000
6200
6200
7E00
6200
6200
6000
6080
6080
FF80
ENDCHAR

STARTCHAR Edieresis
ENCODING 203
SWIDTH 576 0
DWIDTH 11 0
BBX 9 17 1 0
BITMAP
3300
3300
0000
0000
FF00
6100
6100
6000
6200
6200
7E00
6200
6200
6000
6080
6080
FF80
ENDCHAR

STARTCHAR Igrave
ENCODING 204
SWIDTH 324 0
DWIDTH 6 0
BBX 5 17 0 0
BITMAP
C0
60
20
10
78
30
30
30
30
30
30
30
30
30
30
30
78
ENDCHAR

STARTCHAR Iacute
ENCODING 205
SWIDTH 324 0
DWIDTH 6 0
BBX 5 17 1 0
BITMAP
18
30
20
40
F0
60
60
60
60
60
60
60
60
60
60
60
F0
ENDCHAR

STARTCHAR Icircumflex
ENCODING 206
SWIDTH 324 0
DWIDTH 6 0
BBX 6 17 0 0
BITMAP
30
78
48
84
78
30
30
30
30
30
30
30
30
30
30
30
78
ENDCHAR

STARTCHAR Idieresis
ENCODING 207
SWIDTH 324 0
DWIDTH 6 0
BBX 6 17 0 0
BITMAP
CC
CC
00
00
78
30
30
30
30
30
30
30
30
30
30
30
78
ENDCHAR

STARTCHAR Eth
ENCODING 208
SWIDTH 694 0
DWIDTH 13 0
BBX 12 13 0 0
BITMAP
7F00
31C0
3060
3060
3030
3030
FE30
3030
3030
3020
3060
30C0
7F00
ENDCHAR

STARTCHAR Ntilde
ENCODING 209
SWIDTH 713 0
DWIDTH 14 0
BBX 12 17 1 0
BITMAP
0880
1F80
1100
0000
E0F0
7020
7020
5820
4C20
4E20
4620
4320
41A0
41A0
40E0
4060
F060
ENDCHAR

STARTCHAR Ograve
ENCODING 210
SWIDTH 731 0
DWIDTH 14 0
BBX 12 17 1 0
BITMAP
1800
0C00
0400
0200
0F00
30C0
6060
6060
C030
C030
C030
C030
C030
6060
6060
30C0
0F00
ENDCHAR

STARTCHAR Oacute
ENCODING 211
SWIDTH 731 0
DWIDTH 14 0
BBX 12 17 1 0
BITMAP
0180
0300
0200
0400
0F00
30C0
6060
6060
C030
C030
C030
C030
C030
6060
6060
30C0
0F00
ENDCHAR

STARTCHAR Ocircumflex
ENCODING 212
SWIDTH 731 0
DWIDTH 14 0
BBX 12 17 1 0
BITMAP
0600
0F00
0900
1080
0F00
30C0
6060
6060
C030
C030
C030
C030
C030
6060
6060
30C0
0F00
ENDCHAR

STARTCHAR Otilde
ENCODING 213
SWIDTH 731 0
DWIDTH 14 0
BBX 12 17 1 0
BITMAP
0880
1F80
1100
0000
0F00
30C0
6060
6060
C030
C030
C030
C030
C030
6060
6060
30C0
0F00
ENDCHAR

STARTCHAR Odieresis
ENCODING 214
SWIDTH 731 0
DWIDTH 14 0
BBX 12 17 1 0
BITMAP
1980
1980
0000
0000
0F00
30C0
6060
6060
C030
C030
C030
C030
C030
6060
6060
30C0
0F00
ENDCHAR

STARTCHAR multiply
ENCODING 215
SWIDTH 833 0
DWIDTH 16 0
BBX 10 10 3 0
BITMAP
8040
4080
2100
1200
0C00
0C00
1200
2100
4080
8040
ENDCHAR

STARTCHAR Oslash
ENCODING 216
SWIDTH 731 0
DWIDTH 14 0
BBX 12 15 1 -1
BITMAP
0020
0F40
30C0
60E0
6160
C130
C230
C430
C430
C830
6860
7060
30C0
2F00
4000
ENDCHAR

STARTCHAR Ugrave
ENCODING 217
SWIDTH 694 0
DWIDTH 13 0
BBX 11 17 1 0
BITMAP
1800
0C00
0400
0200
F1E0
60C0
60C0
60C0
60C0
60C0
60C0
60C0
60C0
60C0
60C0
3180
1E00
ENDCHAR

STARTCHAR Uacute
ENCODING 218
SWIDTH 694 0
DWIDTH 13 0
BBX 11 17 1 0
BITMAP
0180
0300
0200
0400
F1E0
60C0
60C0
60C0
60C0
60C0
60C0
60C0
60C0
60C0
60C0
3180
1E00
ENDCHAR

STARTCHAR Ucircumflex
ENCODING 219
SWIDTH 694 0
DWIDTH 13 0
BBX 11 17 1 0
BITMAP
0600
0F00
0900
1080
F1E0
60C0
60C0
60C0
60C0
60C0
60C0
60C0
60C0
60C0
60C0
3180
1E00
ENDCHAR

STARTCHAR Udieresis
ENCODING 220
SWIDTH 694 0
DWIDTH 13 0
BBX 11 17 1 0
BITMAP
1980
1980
0000
0000
F1E0
60C0
60C0
60C0
60C0
60C0
60C0
60C0
60C0
60C0
60C0
3180
1E00
ENDCHAR

STARTCHAR Yacute
ENCODING 221
SWIDTH 586 0
DWIDTH 11 0
BBX 12 17 0 0
BITMAP
0180
0300
0200
0400
F0F0
6020
3040
1080
1880
0D00
0F00
0600
0600
0600
0600
0600
1F80
ENDCHAR

STARTCHAR Thorn
ENCODING 222
SWIDTH 558 0
DWIDTH 11 0
BBX 9 13 1 0
BITMAP
F000
6000
7E00
6300
6180
6180
6180
6180
6300
7C00
6000
6000
F000
ENDCHAR

STARTCHAR germandbls
ENCODING 223
SWIDTH 609 0
DWIDTH 12 0
BBX 10 13 1 0
BITMAP
0E00
1300
2100
6100
6300
6400
6400
6600
6380
60C0
64C0
6480
F700
ENDCHAR

STARTCHAR agrave
ENCODING 224
SWIDTH 507 0
DWIDTH 10 0
BBX 9 13 1 0
BITMAP
6000
3000
1000
0800
3C00
6600
0600
0E00
3600
C600
C600
CE00
7780
ENDCHAR

STARTCHAR aacute
ENCODING 225
SWIDTH 507 0
DWIDTH 10 0
BBX 9 13 1 0
BITMAP
0600
0C00
0800
1000
3C00
6600
0600
0E00
3600
C600
C600
CE00
7780
ENDCHAR

STARTCHAR acircumflex
ENCODING 226
SWIDTH 507 0
DWIDTH 10 0
BBX 9 13 1 0
BITMAP
1800
3C00
2400
4200
3C00
6600
0600
0E00
3600
C600
C600
CE00
7780
ENDCHAR

STARTCHAR atilde
ENCODING 227
SWIDTH 507 0
DWIDTH 10 0
BBX 9 13 1 0
BITMAP
2200
7E00
4400
0000
3C00
6600
0600
0E00
3600
C600
C600
CE00
7780
ENDCHAR

STARTCHAR adieresis
ENCODING 228
SWIDTH 507 0
DWIDTH 10 0
BBX 9 13 1 0
BITMAP
6600
6600
0000
0000
3C00
6600
0600
0E00
3600
C600
C600
CE00
7780
ENDCHAR

STARTCHAR aring
ENCODING 229
SWIDTH 507 0
DWIDTH 10 0
BBX 9 15 1 0
BITMAP
1800
2400
2400
2400
1800
0000
3C00
6600
0600
0E00
3600
C600
C600
CE00
7780
ENDCHAR

STARTCHAR ae
ENCODING 230
SWIDTH 725 0
DWIDTH 14 0
BBX 12 9 1 0
BITMAP
3DC0
6760
6630
0630
1FF0
6600
C600
C710
79E0
ENDCHAR

STARTCHAR ccedilla
ENCODING 231
SWIDTH 446 0
DWIDTH 9 0
BBX 7 14 1 -5
BITMAP
1C
26
46
C0
C0
C0
C0
62
3C
10
1C
04
04
38
ENDCHAR

STARTCHAR egrave
ENCODING 232
SWIDTH 491 0
DWIDTH 10 0
BBX 8 13 1 0
BITMAP
60
30
10
08
1C
62
C3
FF
C0
C0
40
61
3E
ENDCHAR

STARTCHAR eacute
ENCODING 233
SWIDTH 491 0
DWIDTH 10 0
BBX 8 13 1 0
BITMAP
06
0C
08
10
1C
62
C3
FF
C0
C0
40
61
3E
ENDCHAR

STARTCHAR ecircumflex
ENCODING 234
SWIDTH 491 0
DWIDTH 10 0
BBX 8 13 1 0
BITMAP
18
3C
24
42
1C
62
C3
FF
C0
C0
40
61
3E
ENDCHAR

STARTCHAR edieresis
ENCODING 235
SWIDTH 491 0
DWIDTH 10 0
BBX 8 13 1 0
BITMAP
66
66
00
00
1C
62
C3
FF
C0
C0
40
61
3E
ENDCHAR

STARTCHAR igrave
ENCODING 236
SWIDTH 280 0
DWIDTH 5 0
BBX 5 13 0 0
BITMAP
C0
60
20
10
70
30
30
30
30
30
30
30
78
ENDCHAR

STARTCHAR iacute
ENCODING 237
SWIDTH 280 0
DWIDTH 5 0
BBX 5 13 1 0
BITMAP
18
30
20
40
E0
60
60
60
60
60
60
60
F0
ENDCHAR

STARTCHAR icircumflex
ENCODING 238
SWIDTH 280 0
DWIDTH 5 0
BBX 6 13 0 0
BITMAP
30
78
48
84
70
30
30
30
30
30
30
30
78
ENDCHAR

STARTCHAR idieresis
ENCODING 239
SWIDTH 280 0
DWIDTH 5 0
BBX 6 13 0 0
BITMAP
CC
CC
00
00
70
30
30
30
30
30
30
30
78
ENDCHAR

STARTCHAR eth
ENCODING 240
SWIDTH 528 0
DWIDTH 10 0
BBX 8 13 1 0
BITMAP
34
18
38
24
1E
62
43
C3
C3
C3
42
64
18
ENDCHAR

STARTCHAR ntilde
ENCODING 241
SWIDTH 569 0
DWIDTH 11 0
BBX 9 13 1 0
BITMAP
1100
3F00
2200
0000
FF00
6300
6300
6300
6300
6300
6300
6300
F780
ENDCHAR

STARTCHAR ograve
ENCODING 242
SWIDTH 539 0
DWIDTH 10 0
BBX 8 13 1 0
BITMAP
30
18
08
04
18
66
42
C3
C3
C3
42
66
18
ENDCHAR

STARTCHAR oacute
ENCODING 243
SWIDTH 539 0
DWIDTH 10 0
BBX 8 13 1 0
BITMAP
03
06
04
08
18
66
42
C3
C3
C3
42
66
18
ENDCHAR

STARTCHAR ocircumflex
ENCODING 244
SWIDTH 539 0
DWIDTH 10 0
BBX 8 13 1 0
BITMAP
0C
1E
12
21
18
66
42
C3
C3
C3
42
66
18
ENDCHAR

STARTCHAR otilde
ENCODING 245
SWIDTH 539 0
DWIDTH 10 0
BBX 8 13 1 0
BITMAP
11
3F
22
00
18
66
42
C3
C3
C3
42
66
18
ENDCHAR

STARTCHAR odieresis
ENCODING 246
SWIDTH 539 0
DWIDTH 10 0
BBX 8 13 1 0
BITMAP
33
33
00
00
18
66
42
C3
C3
C3
42
66
18
ENDCHAR

STARTCHAR divide
ENCODING 247
SWIDTH 833 0
DWIDTH 16 0
BBX 12 9 2 1
BITMAP
0600
0600
0000
0000
FFF0
0000
0000
0600
0600
ENDCHAR

STARTCHAR oslash
ENCODING 248
SWIDTH 539 0
DWIDTH 10 0
BBX 8 12 1 -2
BITMAP
02
1C
66
4A
CB
D3
D3
62
66
58
40
40
ENDCHAR

STARTCHAR ugrave
ENCODING 249
SWIDTH 569 0
DWIDTH 11 0
BBX 9 13 1 0
BITMAP
3000
1800
0800
0400
E700
6300
6300
6300
6300
6300
6300
6300
3F80
ENDCHAR

STARTCHAR uacute
ENCODING 250
SWIDTH 569 0
DWIDTH 11 0
BBX 9 13 1 0
BITMAP
0300
0600
0400
0800
E700
6300
6300
6300
6300
6300
6300
6300
3F80
ENDCHAR

STARTCHAR ucircumflex
ENCODING 251
SWIDTH 569 0
DWIDTH 11 0
BBX 9 13 1 0
BITMAP
0C00
1E00
1200
2100
E700
6300
6300
6300
6300
6300
6300
6300
3F80
ENDCHAR

STARTCHAR udieresis
ENCODING 252
SWIDTH 569 0
DWIDTH 11 0
BBX 9 13 1 0
BITMAP
3300
3300
0000
0000
E700
6300
6300
6300
6300
6300
6300
6300
3F80
ENDCHAR

STARTCHAR yacute
ENCODING 253
SWIDTH 495 0
DWIDTH 10 0
BBX 10 18 0 -5
BITMAP
0300
0600
0400
0800
F1C0
6080
2100
3100
3100
1200
1A00
0C00
0C00
0C00
0800
0800
5000
6000
ENDCHAR

STARTCHAR thorn
ENCODING 254
SWIDTH 551 0
DWIDTH 11 0
BBX 9 18 1 -5
BITMAP
E000
6000
6000
6000
7E00
6300
6180
6180
6180
6180
6100
6200
7C00
6000
6000
6000
6000
F000
ENDCHAR

STARTCHAR ydieresis
ENCODING 255
SWIDTH 495 0
DWIDTH 10 0
BBX 10 18 0 -5
BITMAP
3300
3300
0000
0000
F1C0
6080
2100
3100
3100
1200
1A00
0C00
0C00
0C00
0800
0800
5000
6000
ENDCHAR
ENDFONT
